<svg id="Layer_1" data-name="Layer 1" xmlns="http://www.w3.org/2000/svg" viewBox="0 0 86.21 72.13"><defs><style>.cls-1{isolation:isolate;}.cls-2{fill:#ff3e00;}.cls-3{fill:#fff;}</style></defs><title>logo</title><g class="cls-1"><polygon class="cls-2" points="85.73 58.66 79.47 57.49 79.47 15.07 85.73 13.94 85.73 58.66"/><polygon class="cls-2" points="85.73 13.94 79.47 15.07 74.98 14.29 81.24 13.07 85.73 13.94"/><polygon class="cls-3" points="81.24 46.92 74.98 46.34 74.98 14.29 81.24 13.07 81.24 46.92"/><path class="cls-3" d="M81.17,47.22l-6.26-.61,0-.06a.14.14,0,0,0,0-.07s0,0,0-.07v-.07l6.26.58V47a.24.24,0,0,1,0,.08.19.19,0,0,1,0,.07Z"/><path class="cls-3" d="M81,47.35l-6.26-.61h0l0,0,.05,0,0,0,6.26.61,0,.05,0,0,0,0Z"/><path class="cls-3" d="M80.83,47.36l-6.26-.61h0l6.26.61h0Z"/><polygon class="cls-2" points="80.72 45.57 74.47 45.05 74.47 13.82 80.72 12.57 80.72 45.57"/><path class="cls-2" d="M74.66,13.47l6.26-1.26h0l0,0,0,0,0,0,0,0,0,.06s0,.05,0,.08,0,0,0,.08l-6.26,1.25s0-.05,0-.08,0-.05,0-.07l0-.06,0,0,0,0,0,0,0,0Z"/><path class="cls-2" d="M80.83,47.36l-6.26-.61-.07,0a.1.1,0,0,1,0,0,.15.15,0,0,1,0-.06.2.2,0,0,1,0-.08l6.26.6a.36.36,0,0,0,0,.09l0,.06a.1.1,0,0,0,.05,0A.08.08,0,0,0,80.83,47.36Z"/><polygon class="cls-2" points="80.01 59.81 73.75 58.52 79.47 57.49 85.73 58.66 80.01 59.81"/><path class="cls-2" d="M79.79,60.66l-6.25-1.33-.05,0,0,0a.1.1,0,0,1,0-.05l0,0,6.25,1.32,0,.06,0,0s0,0,0,0Z"/><polygon class="cls-2" points="80.62 47.15 74.36 46.55 71.29 37.2 77.53 37.28 80.62 47.15"/><polygon class="cls-3" points="80.01 59.81 73.75 58.52 63.85 35.39 70.02 35.36 80.01 59.81"/><polygon class="cls-2" points="79.63 60.5 73.38 59.18 63.31 35.79 69.47 35.79 79.63 60.5"/><polygon class="cls-2" points="77.53 37.28 71.29 37.2 61.47 11.94 67.6 10.43 77.53 37.28"/><polygon class="cls-3" points="70.02 35.36 63.85 35.39 60.05 24.91 66.16 24.21 70.02 35.36"/><polygon class="cls-2" points="69.47 35.79 63.31 35.79 59.92 26.48 66.03 25.89 69.47 35.79"/><path class="cls-3" d="M66.16,24.21l-6.11.7a.54.54,0,0,0,0-.11l-.07-.08-.08,0a.32.32,0,0,0-.09,0l6.11-.71L66,24l.09.06.06.09A.37.37,0,0,1,66.16,24.21Z"/><path class="cls-3" d="M59.55,24.63l6.11-.72h0l-6.11.72h-.05Z"/><path class="cls-2" d="M59.55,24.63l6.11-.72H65.6l0,0,0,0s0,0,0,0l-6.11.72,0,0,0,0,0,0Z"/><polygon class="cls-2" points="65.37 61.82 59.27 60.27 59.27 25.04 65.37 24.35 65.37 61.82"/><path class="cls-2" d="M65.37,24.35l-6.1.69a.19.19,0,0,1,0-.08s0-.06,0-.08l0-.08a.21.21,0,0,0,0-.06L65.47,24l0,.07a.13.13,0,0,0,0,.08.29.29,0,0,0,0,.09A.28.28,0,0,0,65.37,24.35Z"/><polygon class="cls-3" points="59.09 63.04 53.11 61.34 53.11 10.48 59.09 8.78 59.09 63.04"/><polygon class="cls-2" points="59.09 63.04 53.11 61.34 59.27 60.27 65.37 61.82 59.09 63.04"/><polygon class="cls-2" points="67.6 10.43 61.47 11.94 53.11 10.48 59.09 8.78 67.6 10.43"/><path class="cls-2" d="M58.59,64.07l-6-1.77h0l0,0,0,0,0,0,6,1.76,0,0,0,0a.05.05,0,0,0,0,0Z"/><path class="cls-2" d="M52.63,9.52l6-1.77h0l0,0,0,0,0,0-.05.06,0,.08a.19.19,0,0,0,0,.08.34.34,0,0,0,0,.1l-6,1.75a.28.28,0,0,1,0-.09.19.19,0,0,1,0-.08l0-.08,0-.06,0,0,0,0,0,0Z"/><path class="cls-2" d="M86.14,13.36l0,.06s0,.05,0,.08,0,0,0,.07a.22.22,0,0,1,0,.08V59a.19.19,0,0,1,0,.08s0,0,0,.08,0,0,0,.07l0,.07,0,0,0,.05,0,0,0,0-6.11,1.26a.09.09,0,0,1-.07,0,.09.09,0,0,1-.06,0l-.06-.05,0-.08L69.47,35.79,66,25.89V62.24s0,.06,0,.09l0,.09,0,.08,0,.06-.06.06-.06,0-.06,0-7,1.4s0,0-.07,0h-.07l-.06,0L58.46,64l-.05-.07,0-.08a.19.19,0,0,1,0-.08.34.34,0,0,1,0-.1V8.16a.34.34,0,0,1,0-.1.19.19,0,0,1,0-.08l0-.08.05-.06.06,0,.06,0h.14l9.07,1.82.09,0a.21.21,0,0,1,.08.06.35.35,0,0,1,.06.09.47.47,0,0,1,0,.1l9.94,27,2.71,8.7v-33s0-.06,0-.08,0-.05,0-.08l0-.06,0,0,0-.05,0,0h0a0,0,0,0,1,0,0l5,1h0l0,0s0,0,0,0Zm-.41,45.3V13.94l-4.49-.87V47a.24.24,0,0,1,0,.08.19.19,0,0,1,0,.07l0,.07,0,.05,0,0,0,0h-.24a.18.18,0,0,1-.07,0l-.06-.06a1,1,0,0,1,0-.1l-3.09-9.87L67.6,10.43,59.09,8.78V63l6.28-1.22V24.35a.28.28,0,0,1,0-.09.29.29,0,0,1,0-.09.13.13,0,0,1,0-.08l0-.07,0-.05.06,0,.06,0h.07l.16,0L66,24l.09.06.06.09a.37.37,0,0,1,0,.11L70,35.36,80,59.81l5.72-1.15"/><path class="cls-3" d="M85.73,13.94V58.66L80,59.81,70,35.36,66.16,24.21a.37.37,0,0,0,0-.11L66.05,24,66,24l-.09,0-.16,0h-.07l-.06,0-.06,0,0,.05,0,.07a.13.13,0,0,0,0,.08.29.29,0,0,0,0,.09.28.28,0,0,0,0,.09V61.82L59.09,63V8.78l8.51,1.65,9.93,26.85,3.09,9.87a1,1,0,0,0,0,.1l.06.06a.18.18,0,0,0,.07,0H81l0,0,0,0,0-.05,0-.07a.19.19,0,0,0,0-.07.24.24,0,0,0,0-.08V13.07Z"/><path class="cls-2" d="M58.46,64l-6-1.76,0-.07,0-.07a.29.29,0,0,1,0-.09.19.19,0,0,1,0-.08l6,1.74a.34.34,0,0,0,0,.1.19.19,0,0,0,0,.08l0,.08Z"/><polygon class="cls-2" points="58.35 63.66 52.39 61.91 52.39 9.91 58.35 8.16 58.35 63.66"/></g><g class="cls-1"><polygon class="cls-2" points="43.69 19.78 38.16 20.89 43.79 15.28 49.51 13.8 43.69 19.78"/><path class="cls-2" d="M43.74,21.09l-5.52,1H38.1l5.52-1h.12Z"/><path class="cls-2" d="M43.62,21.09l-5.52,1-.09,0-.08,0a.23.23,0,0,1-.07-.07.16.16,0,0,1-.06-.08l5.51-1,.06.09.08.07.08.05Z"/><path class="cls-2" d="M49.11,55.39l-5.71-1.3c.19-.55.36-1.1.5-1.67s.26-1.15.36-1.75.16-1.2.21-1.82.07-1.26.07-1.9a24.48,24.48,0,0,0-.2-3.19A17.46,17.46,0,0,0,43.73,41a13.45,13.45,0,0,0-1-2.41,11,11,0,0,0-1.45-2,12.78,12.78,0,0,0-1.94-1.78A17.82,17.82,0,0,0,36.8,33.2a23.64,23.64,0,0,0-3.11-1.31,35.5,35.5,0,0,0-3.8-1.07l5.18-.4a37.77,37.77,0,0,1,4,1.16A27.17,27.17,0,0,1,42.28,33a17.75,17.75,0,0,1,2.59,1.67,13.13,13.13,0,0,1,2,1.9,12.93,12.93,0,0,1,1.5,2.2,14.82,14.82,0,0,1,1,2.58,18.42,18.42,0,0,1,.63,3,26.06,26.06,0,0,1,.22,3.41c0,.69,0,1.37-.08,2s-.12,1.32-.22,1.95-.22,1.26-.36,1.87S49.31,54.8,49.11,55.39Z"/><path class="cls-3" d="M28.56,40.52h0l5.12.36h0Z"/><path class="cls-3" d="M34.64,43.2a5.12,5.12,0,0,0-1-.9,7.4,7.4,0,0,0-1.34-.74A12.15,12.15,0,0,0,30.62,41c-.63-.17-1.31-.32-2.06-.45l5.13.36c.78.14,1.49.3,2.14.48a14.29,14.29,0,0,1,1.76.63,8.3,8.3,0,0,1,1.39.79,5.45,5.45,0,0,1,1.05,1,6.53,6.53,0,0,1,.73,1.12,7.19,7.19,0,0,1,.52,1.27,8.92,8.92,0,0,1,.31,1.42,11.3,11.3,0,0,1,.1,1.57l-1.38-.24-.54-.09-.27,0-3.26-.56,5.45.93a12.2,12.2,0,0,1-.15,2A11.39,11.39,0,0,1,41.06,53a10.08,10.08,0,0,1-1.94,3.24l-5.36-1.45,5.36,1.45a10.41,10.41,0,0,1-1.48,1.32,12.13,12.13,0,0,1-1.8,1,13.63,13.63,0,0,1-2.15.78,19.64,19.64,0,0,1-2.52.52h0l-5-1.78h0a17.94,17.94,0,0,0,2.4-.46,14.21,14.21,0,0,0,2.06-.7,11,11,0,0,0,1.73-1,9.38,9.38,0,0,0,2.51-2.63,8.55,8.55,0,0,0,.77-1.58,8.89,8.89,0,0,0,.46-1.74,11.49,11.49,0,0,0,.15-1.89,9.71,9.71,0,0,0-.1-1.45,7,7,0,0,0-.3-1.33,6.51,6.51,0,0,0-.49-1.18A6.16,6.16,0,0,0,34.64,43.2Z"/><polygon class="cls-2" points="35.07 30.42 29.89 30.82 24.56 29.57 29.49 29.06 35.07 30.42"/><polygon class="cls-3" points="33.66 40.88 28.54 40.52 23.03 39.76 27.88 40.07 33.66 40.88"/><polygon class="cls-2" points="33.48 42.01 28.36 41.56 22.87 40.85 27.71 41.25 33.48 42.01"/><path class="cls-3" d="M19.59,14.12l4.67-1.81a9.07,9.07,0,0,1,1.45-.43,11.86,11.86,0,0,1,1.64-.2,17.8,17.8,0,0,1,1.79,0c.62,0,1.27.1,1.95.2a23.3,23.3,0,0,1,2.35.45,18.24,18.24,0,0,1,2.09.66,13.83,13.83,0,0,1,1.87.85A12.69,12.69,0,0,1,39,14.89c.46.34.9.71,1.32,1.09s.83.77,1.22,1.18.75.83,1.1,1.26.69.89,1,1.36l-5.53,1.11c-.31-.43-.63-.85-1-1.25a14.72,14.72,0,0,0-1.06-1.17c-.37-.38-.76-.74-1.17-1.09s-.83-.68-1.27-1a13,13,0,0,0-1.58-1,15.17,15.17,0,0,0-1.78-.78,18.28,18.28,0,0,0-2-.58,20.81,20.81,0,0,0-2.24-.4c-.64-.08-1.26-.14-1.85-.16a13.82,13.82,0,0,0-1.71,0,10.75,10.75,0,0,0-1.55.2A9.27,9.27,0,0,0,19.59,14.12Z"/><path class="cls-2" d="M20.21,15.13l4.7-1.73a8.66,8.66,0,0,1,1.27-.35,10.59,10.59,0,0,1,1.46-.18,14.76,14.76,0,0,1,1.63,0c.58,0,1.18.08,1.82.17s1.54.25,2.25.42a18.55,18.55,0,0,1,2,.6,14.58,14.58,0,0,1,1.74.79,12.12,12.12,0,0,1,1.51,1c.48.35.93.73,1.37,1.12s.84.79,1.24,1.21S42,19,42.3,19.45s.69.92,1,1.41l-5.51,1c-.31-.45-.63-.88-1-1.3a15.54,15.54,0,0,0-1.08-1.21,14.05,14.05,0,0,0-1.19-1.12,14.86,14.86,0,0,0-1.31-1,11,11,0,0,0-1.45-.88,13.3,13.3,0,0,0-1.67-.71,19.33,19.33,0,0,0-1.9-.55c-.68-.15-1.39-.27-2.15-.36-.6-.08-1.18-.13-1.72-.15s-1.07,0-1.56,0a13.82,13.82,0,0,0-1.39.18A8.05,8.05,0,0,0,20.21,15.13Z"/><path class="cls-3" d="M26.16,58.16l5,1.78a19.46,19.46,0,0,1-2.38.21,18.26,18.26,0,0,1-2.35-.09,16.36,16.36,0,0,1-2.31-.38A18.21,18.21,0,0,1,21.88,59l-.07,0-.07,0-.14,0-.14-.06-.15-.06-.14-.06L21,58.65l-.15-.06-.15-.06-.45-.18-.45-.18L19.37,58l-.44-.17-.42-.17-.41-.16-.39-.16-.37-.14L21.88,59l-.05,0-.06,0-.05,0-.06,0-4.52-1.79.05,0,0,0,.05,0,.05,0a16.36,16.36,0,0,0,2.13.66,17.9,17.9,0,0,0,2.19.38,20.57,20.57,0,0,0,2.23.1A21.87,21.87,0,0,0,26.16,58.16Z"/><path class="cls-2" d="M22.64,57.91,18.06,56.2a15.07,15.07,0,0,0,2,.59,14.65,14.65,0,0,0,2,.34,17.38,17.38,0,0,0,2,.09,18.78,18.78,0,0,0,2.1-.13,17.47,17.47,0,0,0,2.28-.43A12,12,0,0,0,30.36,56a9.78,9.78,0,0,0,1.57-.86,8,8,0,0,0,1.25-1.06,8.43,8.43,0,0,0,1-1.23,7.94,7.94,0,0,0,.68-1.37,8.17,8.17,0,0,0,.4-1.53,10.17,10.17,0,0,0,.14-1.7A9.09,9.09,0,0,0,35.26,47,6.67,6.67,0,0,0,35,45.81a5.38,5.38,0,0,0-.43-1,5.26,5.26,0,0,0-.6-.88,4.46,4.46,0,0,0-.84-.75,6.5,6.5,0,0,0-1.21-.64A13.11,13.11,0,0,0,30.34,42a20,20,0,0,0-2-.42l5.12.45q1.14.2,2.07.45A11.72,11.72,0,0,1,37.2,43a7,7,0,0,1,1.25.69,4.31,4.31,0,0,1,.88.8,5.59,5.59,0,0,1,.63.95,5.81,5.81,0,0,1,.44,1.08,7.76,7.76,0,0,1,.27,1.24,10.4,10.4,0,0,1,.09,1.4A10.62,10.62,0,0,1,40.62,51a8.67,8.67,0,0,1-.42,1.65,8,8,0,0,1-.7,1.48,7.84,7.84,0,0,1-1,1.33,8.09,8.09,0,0,1-1.3,1.16,10.33,10.33,0,0,1-1.64.94,13,13,0,0,1-2,.71,19,19,0,0,1-2.39.48A18.42,18.42,0,0,1,29,59a17.19,17.19,0,0,1-2.16-.08,16.28,16.28,0,0,1-2.11-.34A16.8,16.8,0,0,1,22.64,57.91Z"/><path class="cls-2" d="M19.59,14.12,20,14l.22-.08.45-.17.45-.18.23-.09.46-.18.47-.18.24-.09.48-.19.49-.19.24-.1.51-.19-.35.14-.33.16-.32.17L23,13a6.14,6.14,0,0,0-1.3,1.13,5.84,5.84,0,0,0-.95,1.43,7,7,0,0,0-.57,1.72,9.64,9.64,0,0,0-.19,2,12.92,12.92,0,0,0,.15,2,9.12,9.12,0,0,0,.46,1.8,7.39,7.39,0,0,0,.77,1.54,6.91,6.91,0,0,0,1.08,1.27,8.47,8.47,0,0,0,1.36,1,12.08,12.08,0,0,0,1.64.87,18.72,18.72,0,0,0,1.92.73c.68.22,1.4.42,2.17.59l-4.93.52c-.73-.17-1.42-.35-2.06-.55a18.29,18.29,0,0,1-1.82-.66,12.62,12.62,0,0,1-1.56-.8,8.57,8.57,0,0,1-1.29-.94,5.94,5.94,0,0,1-1-1.16,7,7,0,0,1-.73-1.42,8.68,8.68,0,0,1-.43-1.65,11.14,11.14,0,0,1-.14-1.86,8.86,8.86,0,0,1,.17-1.82,6.77,6.77,0,0,1,.54-1.59,5.77,5.77,0,0,1,.9-1.33,6.21,6.21,0,0,1,1.23-1.05l.3-.18.3-.16.31-.15Z"/><path class="cls-2" d="M10.56,6.59,14.68,4a16.5,16.5,0,0,1,1.71-.93,17.3,17.3,0,0,1,1.82-.74c.63-.21,1.28-.39,1.95-.55s1.35-.27,2.06-.37,1.48-.15,2.24-.18,1.54,0,2.33,0,1.6.12,2.42.23,1.64.24,2.48.41c1.12.23,2.18.5,3.2.81a29.32,29.32,0,0,1,2.87,1A28,28,0,0,1,40.34,5a23,23,0,0,1,2.3,1.45,24.94,24.94,0,0,1,2,1.57,24.74,24.74,0,0,1,1.79,1.76c.57.61,1.11,1.25,1.63,1.93s1,1.38,1.46,2.12l-5.72,1.47c-.45-.68-.92-1.33-1.42-2a22.33,22.33,0,0,0-1.57-1.79c-.55-.57-1.13-1.1-1.73-1.61s-1.25-1-1.91-1.44a20.3,20.3,0,0,0-2.22-1.32A25.35,25.35,0,0,0,32.47,6c-.88-.34-1.8-.64-2.76-.91s-2-.51-3.05-.7c-.81-.15-1.6-.26-2.37-.35S22.75,3.92,22,3.9s-1.49,0-2.21,0a20.79,20.79,0,0,0-2.13.2,19.58,19.58,0,0,0-1.94.37c-.64.15-1.25.33-1.84.53a17.65,17.65,0,0,0-1.72.7A16.38,16.38,0,0,0,10.56,6.59Z"/><path class="cls-2" d="M10.16,50.79l4.1,1.32-.06,0H14L9.91,50.76h.25Z"/><path class="cls-2" d="M21.66,58.9l-.48-.19-.24-.1-.48-.18L20,58.24l-.23-.09L19.31,58l-.45-.18-.22-.09-.44-.17-.43-.17-.21-.09-.42-.16a19.21,19.21,0,0,1-1.9-.88c-.62-.33-1.23-.7-1.84-1.1a22,22,0,0,1-1.78-1.35c-.59-.49-1.16-1-1.73-1.58L14,53.64q.9.91,1.83,1.71c.62.52,1.26,1,1.9,1.44A22,22,0,0,0,19.66,58,21.14,21.14,0,0,0,21.66,58.9Z"/><path class="cls-2" d="M13.56,52.3,9.5,51l.09-.08.1-.06.11,0,.11,0L14,52.07a.53.53,0,0,0-.12,0l-.12,0-.1.07A.43.43,0,0,0,13.56,52.3Z"/><path class="cls-2" d="M9,66.22,5.21,63.7c.53.35,1.07.69,1.62,1s1.11.61,1.68.89,1.14.54,1.73.78,1.17.46,1.77.67a20,20,0,0,0,3.07.79,24.92,24.92,0,0,0,3.29.34,31.43,31.43,0,0,0,3.48-.08c1.18-.1,2.4-.26,3.64-.49q1.31-.23,2.49-.54c.79-.2,1.55-.42,2.27-.67s1.41-.51,2.07-.8,1.28-.59,1.88-.91,1.16-.67,1.7-1a17.63,17.63,0,0,0,1.53-1.11c.48-.39.94-.79,1.37-1.21s.83-.84,1.21-1.29.73-.91,1.06-1.38.64-1,.92-1.46.54-1,.78-1.52.44-1.06.63-1.6l5.71,1.3c-.2.59-.42,1.16-.66,1.72s-.51,1.11-.8,1.64-.61,1.06-.95,1.57-.71,1-1.1,1.5a18.3,18.3,0,0,1-1.26,1.4,17.62,17.62,0,0,1-1.41,1.31,19.63,19.63,0,0,1-1.59,1.22c-.56.39-1.15.77-1.77,1.13s-1.28.7-2,1-1.41.62-2.16.89-1.55.53-2.37.76-1.71.44-2.61.62c-1.31.27-2.59.46-3.83.59a30.56,30.56,0,0,1-3.67.14,24.45,24.45,0,0,1-3.48-.32,20.17,20.17,0,0,1-3.26-.8c-.64-.22-1.27-.45-1.89-.7s-1.23-.53-1.84-.82-1.2-.62-1.79-1S9.55,66.6,9,66.22Z"/><path class="cls-3" d="M10.56,6.59,14.68,4l-.07,0-.06,0-.07,0-.07,0a17.32,17.32,0,0,0-1.59,1.19A15.56,15.56,0,0,0,11.4,6.76a14.81,14.81,0,0,0-1.23,1.58,15.5,15.5,0,0,0-1,1.77,16.23,16.23,0,0,0-.83,2,20,20,0,0,0-.59,2.12,20.65,20.65,0,0,0-.36,2.29,21.7,21.7,0,0,0-.13,2.45,25.16,25.16,0,0,0,.36,4.34,20.48,20.48,0,0,0,1.07,3.88,17.75,17.75,0,0,0,4.14,6.3,19.71,19.71,0,0,0,3,2.39,23.61,23.61,0,0,0,3.56,1.91,30.69,30.69,0,0,0,4.06,1.4,36.93,36.93,0,0,0,4.48.92L23,39.76a37.55,37.55,0,0,1-4.25-.86,27.89,27.89,0,0,1-3.84-1.3,21.59,21.59,0,0,1-3.35-1.75,18.31,18.31,0,0,1-2.82-2.2A16.48,16.48,0,0,1,4.9,27.88a18,18,0,0,1-1-3.55,22,22,0,0,1-.34-4c0-.77,0-1.52.11-2.24A20,20,0,0,1,4,16a17.53,17.53,0,0,1,.56-2,15.37,15.37,0,0,1,.77-1.81,14.6,14.6,0,0,1,1-1.63A13.76,13.76,0,0,1,7.48,9.16,12.48,12.48,0,0,1,8.81,7.87,13.8,13.8,0,0,1,10.3,6.75l.07,0,.06,0,.06,0Z"/><path class="cls-2" d="M9.39,5.82l4-2.66a16.05,16.05,0,0,0-3.15,2.71A15,15,0,0,0,9,7.53,15.68,15.68,0,0,0,7.9,9.39a17.69,17.69,0,0,0-.9,2.1,20.08,20.08,0,0,0-.65,2.28A21.05,21.05,0,0,0,6,16.21a24.46,24.46,0,0,0-.13,2.6,27.37,27.37,0,0,0,.38,4.6,22.17,22.17,0,0,0,1.16,4.16,18.94,18.94,0,0,0,1.9,3.66,18.35,18.35,0,0,0,2.59,3.12,20.32,20.32,0,0,0,3.23,2.56,24.84,24.84,0,0,0,3.76,2,32.45,32.45,0,0,0,4.24,1.44,39.59,39.59,0,0,0,4.61.91l-4.84-.4A38.15,38.15,0,0,1,18.49,40a28.42,28.42,0,0,1-4-1.33A23.58,23.58,0,0,1,11,36.83a19.12,19.12,0,0,1-3-2.35,17,17,0,0,1-2.43-2.86,17.59,17.59,0,0,1-1.78-3.35,20.18,20.18,0,0,1-1.07-3.81,23.82,23.82,0,0,1-.36-4.21,23.12,23.12,0,0,1,.12-2.38,20.12,20.12,0,0,1,.36-2.24,17.94,17.94,0,0,1,.6-2.09,15.84,15.84,0,0,1,.84-1.93,16.23,16.23,0,0,1,1-1.72A16.49,16.49,0,0,1,6.44,8.35,14.77,14.77,0,0,1,7.83,7,13.88,13.88,0,0,1,9.39,5.82Z"/><polygon class="cls-3" points="5.08 63.13 1.57 60.82 9.89 52.2 13.97 53.64 5.08 63.13"/><path class="cls-3" d="M1.57,60.82l3.51,2.31c.31.28.62.57.94.84s.64.54,1,.8l1,.75c.33.24.67.47,1,.7L5.21,63.7c-.32-.21-.63-.43-.94-.66s-.62-.46-.92-.7-.61-.48-.9-.74S1.86,61.09,1.57,60.82Z"/><path class="cls-2" d="M47.48,35.8a13.49,13.49,0,0,1,1.62,2.38A15.88,15.88,0,0,1,50.22,41a20,20,0,0,1,.67,3.16,28.55,28.55,0,0,1,.22,3.55c0,.73,0,1.43-.08,2.13s-.12,1.37-.23,2-.23,1.32-.38,2-.33,1.27-.54,1.9a18.93,18.93,0,0,1-.69,1.82c-.26.6-.54,1.18-.85,1.74a17.39,17.39,0,0,1-1,1.66c-.36.55-.74,1.07-1.15,1.59s-.86,1-1.33,1.5-1,.94-1.49,1.39-1.08.88-1.66,1.29-1.2.8-1.84,1.18-1.33.73-2,1.07-1.46.64-2.23.93-1.6.56-2.45.8-1.75.47-2.68.66a38,38,0,0,1-3.93.62,30.91,30.91,0,0,1-3.81.18,25.14,25.14,0,0,1-3.63-.31A22.42,22.42,0,0,1,15.66,71a33.17,33.17,0,0,1-3.23-1.25,31.66,31.66,0,0,1-3.11-1.63,30.61,30.61,0,0,1-3-2,33.08,33.08,0,0,1-2.79-2.38.85.85,0,0,1-.14-.21.69.69,0,0,1,0-.25A1.14,1.14,0,0,1,3.45,63a1.11,1.11,0,0,1,.16-.24l10-10.5a.43.43,0,0,1,.1-.09l.1-.07.12,0a.53.53,0,0,1,.12,0h.15l.14,0,.11.06a.34.34,0,0,1,.09.08c.62.66,1.25,1.28,1.89,1.84a24.8,24.8,0,0,0,1.95,1.54,21.36,21.36,0,0,0,2,1.24,18.21,18.21,0,0,0,2.06,1,15.94,15.94,0,0,0,4.28,1,18.14,18.14,0,0,0,2.22.1,22.12,22.12,0,0,0,2.27-.18,19,19,0,0,0,2.39-.48,13,13,0,0,0,2-.71,10.33,10.33,0,0,0,1.64-.94,8.09,8.09,0,0,0,1.3-1.16,7.84,7.84,0,0,0,1-1.33,8,8,0,0,0,.7-1.48A8.67,8.67,0,0,0,40.62,51a10.62,10.62,0,0,0,.14-1.83,10.4,10.4,0,0,0-.09-1.4,7.76,7.76,0,0,0-.27-1.24A5.81,5.81,0,0,0,40,45.48a5.59,5.59,0,0,0-.63-.95,4.31,4.31,0,0,0-.88-.8A7,7,0,0,0,37.2,43a11.72,11.72,0,0,0-1.65-.58q-.93-.26-2.07-.45l-5.77-.76a39.59,39.59,0,0,1-4.61-.91,32.45,32.45,0,0,1-4.24-1.44,24.84,24.84,0,0,1-3.76-2,20.32,20.32,0,0,1-3.23-2.56,18.35,18.35,0,0,1-2.59-3.12,18.94,18.94,0,0,1-1.9-3.66,22.17,22.17,0,0,1-1.16-4.16,27.37,27.37,0,0,1-.38-4.6A24.46,24.46,0,0,1,6,16.21a21.05,21.05,0,0,1,.38-2.44A20.08,20.08,0,0,1,7,11.49a17.69,17.69,0,0,1,.9-2.1A17.88,17.88,0,0,1,9,7.49,15.79,15.79,0,0,1,10.36,5.8a15.28,15.28,0,0,1,1.53-1.48,15.58,15.58,0,0,1,1.72-1.27,16.29,16.29,0,0,1,1.87-1,19.67,19.67,0,0,1,2-.82,20.88,20.88,0,0,1,2.13-.6A20.31,20.31,0,0,1,21.87.19,22.58,22.58,0,0,1,24.22,0c.79,0,1.6,0,2.42,0s1.65.13,2.5.25,1.69.27,2.55.45c1.14.24,2.24.52,3.29.84a31.23,31.23,0,0,1,3,1.08A25.46,25.46,0,0,1,40.61,4,24.47,24.47,0,0,1,43,5.51a25.56,25.56,0,0,1,2.16,1.73,27.31,27.31,0,0,1,1.94,1.94,26,26,0,0,1,1.74,2.13c.55.75,1.07,1.52,1.56,2.34a1.34,1.34,0,0,1,.07.18,1.37,1.37,0,0,1,0,.19.8.8,0,0,1,0,.18.38.38,0,0,1-.09.15L44,21a.19.19,0,0,1-.07.06l-.09,0-.09,0a.14.14,0,0,1-.09,0l-.09,0L43.45,21,43.37,21l-.06-.09c-.32-.49-.65-1-1-1.41s-.72-.89-1.11-1.31-.81-.83-1.24-1.21-.89-.77-1.37-1.12a12.12,12.12,0,0,0-1.51-1,14.58,14.58,0,0,0-1.74-.79,18.55,18.55,0,0,0-2-.6q-1.06-.26-2.25-.42a19.9,19.9,0,0,0-2.32-.19,13,13,0,0,0-2,.11,8.57,8.57,0,0,0-1.71.4,6.18,6.18,0,0,0-1.39.67,5.64,5.64,0,0,0-1.09,1,5,5,0,0,0-.78,1.19,6.33,6.33,0,0,0-.48,1.45,9,9,0,0,0-.16,1.71,12.58,12.58,0,0,0,.13,1.8,8.23,8.23,0,0,0,.39,1.52,6.27,6.27,0,0,0,.63,1.27,5.28,5.28,0,0,0,.86,1,8.13,8.13,0,0,0,1.17.89,12.15,12.15,0,0,0,1.49.8c.55.25,1.15.48,1.8.7s1.34.4,2.08.58l5.57,1.4a34.77,34.77,0,0,1,4,1.21A24,24,0,0,1,42.64,32a18.57,18.57,0,0,1,2.71,1.75A14.77,14.77,0,0,1,47.48,35.8Zm1.63,19.59c.2-.59.37-1.19.52-1.8s.26-1.23.36-1.87.17-1.29.22-1.95.08-1.35.08-2a26.06,26.06,0,0,0-.22-3.41,18.42,18.42,0,0,0-.63-3,14.82,14.82,0,0,0-1-2.58,12.93,12.93,0,0,0-1.5-2.2,13.13,13.13,0,0,0-2-1.9A17.75,17.75,0,0,0,42.28,33,27.17,27.17,0,0,0,39,31.58a37.77,37.77,0,0,0-4-1.16l-5.58-1.36c-.77-.17-1.49-.37-2.17-.59a18.72,18.72,0,0,1-1.92-.73,12.08,12.08,0,0,1-1.64-.87,8.47,8.47,0,0,1-1.36-1,6.91,6.91,0,0,1-1.08-1.27A7.39,7.39,0,0,1,20.55,23a9.12,9.12,0,0,1-.46-1.8,12.92,12.92,0,0,1-.15-2,9.64,9.64,0,0,1,.19-2,7,7,0,0,1,.57-1.72,5.84,5.84,0,0,1,.95-1.43A6.14,6.14,0,0,1,23,13a7,7,0,0,1,1.63-.78,10.07,10.07,0,0,1,1.91-.43,13.93,13.93,0,0,1,2.18-.1,21.52,21.52,0,0,1,2.42.22,23.3,23.3,0,0,1,2.35.45,18.24,18.24,0,0,1,2.09.66,13.83,13.83,0,0,1,1.87.85A12.69,12.69,0,0,1,39,14.89c.46.34.9.71,1.32,1.09s.83.77,1.22,1.18.75.83,1.1,1.26.69.89,1,1.36l5.82-6c-.46-.74-.95-1.44-1.46-2.12S47,10.36,46.42,9.75A24.74,24.74,0,0,0,44.63,8a24.94,24.94,0,0,0-2-1.57A23,23,0,0,0,40.34,5a28,28,0,0,0-2.58-1.24,29.32,29.32,0,0,0-2.87-1c-1-.31-2.08-.58-3.2-.81-.84-.17-1.67-.31-2.48-.41s-1.63-.19-2.42-.23-1.57-.05-2.33,0-1.51.09-2.24.18-1.45.23-2.14.39a18.19,18.19,0,0,0-2,.59,17.47,17.47,0,0,0-3.65,1.78,17.32,17.32,0,0,0-1.59,1.19A15.56,15.56,0,0,0,11.4,6.76a14.81,14.81,0,0,0-1.23,1.58,15.5,15.5,0,0,0-1,1.77,16.23,16.23,0,0,0-.83,2,20,20,0,0,0-.59,2.12,20.65,20.65,0,0,0-.36,2.29,21.7,21.7,0,0,0-.13,2.45,25.16,25.16,0,0,0,.36,4.34,20.48,20.48,0,0,0,1.07,3.88,17.75,17.75,0,0,0,4.14,6.3,19.71,19.71,0,0,0,3,2.39,23.61,23.61,0,0,0,3.56,1.91,30.69,30.69,0,0,0,4.06,1.4,36.93,36.93,0,0,0,4.48.92l5.77.81q1.18.21,2.16.48a11.75,11.75,0,0,1,1.77.63,7.76,7.76,0,0,1,1.4.79,5.15,5.15,0,0,1,1.05,1,6.53,6.53,0,0,1,.73,1.12,7.19,7.19,0,0,1,.52,1.27,8.92,8.92,0,0,1,.31,1.42,11.3,11.3,0,0,1,.1,1.57,12.2,12.2,0,0,1-.15,2A11.39,11.39,0,0,1,41.06,53a10.08,10.08,0,0,1-1.94,3.24,10.41,10.41,0,0,1-1.48,1.32,12.13,12.13,0,0,1-1.8,1,13.63,13.63,0,0,1-2.15.78,21.5,21.5,0,0,1-4.9.73,18.26,18.26,0,0,1-2.35-.09,16.36,16.36,0,0,1-2.31-.38A18.21,18.21,0,0,1,21.88,59a21,21,0,0,1-2.06-.93,23.15,23.15,0,0,1-2-1.2q-1-.68-1.95-1.47A25.49,25.49,0,0,1,14,53.64l-8.9,9.49a30.61,30.61,0,0,0,2.58,2.15,30,30,0,0,0,2.72,1.82,28.75,28.75,0,0,0,2.86,1.49,31,31,0,0,0,3,1.18,20.17,20.17,0,0,0,3.26.8,24.45,24.45,0,0,0,3.48.32,30.56,30.56,0,0,0,3.67-.14c1.24-.13,2.52-.32,3.83-.59.9-.18,1.77-.39,2.61-.62s1.61-.48,2.37-.76,1.47-.57,2.16-.89,1.34-.65,2-1,1.21-.74,1.77-1.13a19.63,19.63,0,0,0,1.59-1.22,17.62,17.62,0,0,0,1.41-1.31,18.3,18.3,0,0,0,1.26-1.4c.39-.49.76-1,1.1-1.5s.66-1,.95-1.57.56-1.08.8-1.64.46-1.13.66-1.72"/><path class="cls-3" d="M31.69,1.9c1.12.23,2.18.5,3.2.81a29.32,29.32,0,0,1,2.87,1A28,28,0,0,1,40.34,5a23,23,0,0,1,2.3,1.45,24.94,24.94,0,0,1,2,1.57,24.74,24.74,0,0,1,1.79,1.76c.57.61,1.11,1.26,1.63,1.93s1,1.38,1.46,2.12l-5.82,6c-.32-.47-.66-.92-1-1.36s-.72-.86-1.1-1.26-.8-.81-1.22-1.18-.86-.75-1.32-1.09a12.69,12.69,0,0,0-1.64-1.05A13.83,13.83,0,0,0,35.53,13a18.24,18.24,0,0,0-2.09-.66,23.3,23.3,0,0,0-2.35-.45,21.52,21.52,0,0,0-2.42-.22,13.93,13.93,0,0,0-2.18.1,10.07,10.07,0,0,0-1.91.43A7,7,0,0,0,23,13a6.14,6.14,0,0,0-1.3,1.13,5.84,5.84,0,0,0-.95,1.43,7,7,0,0,0-.57,1.72,9.64,9.64,0,0,0-.19,2,12.92,12.92,0,0,0,.15,2,9.12,9.12,0,0,0,.46,1.8,7.39,7.39,0,0,0,.77,1.54,6.91,6.91,0,0,0,1.08,1.27,8.47,8.47,0,0,0,1.36,1,12.08,12.08,0,0,0,1.64.87,18.72,18.72,0,0,0,1.92.73c.69.22,1.41.42,2.18.59l5.57,1.36a37.77,37.77,0,0,1,4,1.16A27.17,27.17,0,0,1,42.28,33a17.75,17.75,0,0,1,2.59,1.67,13.13,13.13,0,0,1,2,1.9,12.93,12.93,0,0,1,1.5,2.2,14.82,14.82,0,0,1,1,2.58,18.42,18.42,0,0,1,.63,3,26.06,26.06,0,0,1,.22,3.41c0,.69,0,1.37-.08,2s-.12,1.32-.22,1.95-.22,1.26-.36,1.87-.32,1.21-.52,1.8-.42,1.16-.66,1.72-.51,1.11-.8,1.64-.61,1.06-.95,1.57-.71,1-1.1,1.5a18.3,18.3,0,0,1-1.26,1.4,17.62,17.62,0,0,1-1.41,1.31,19.63,19.63,0,0,1-1.59,1.22c-.56.39-1.15.77-1.77,1.13s-1.28.7-2,1-1.41.62-2.16.89-1.55.53-2.37.76-1.71.44-2.61.62c-1.31.27-2.59.46-3.83.59a30.56,30.56,0,0,1-3.67.14,24.45,24.45,0,0,1-3.48-.32,20.17,20.17,0,0,1-3.26-.8,31,31,0,0,1-3-1.18,28.75,28.75,0,0,1-2.86-1.49,30,30,0,0,1-2.72-1.82,30.61,30.61,0,0,1-2.58-2.15L14,53.64a25.49,25.49,0,0,0,1.88,1.75q1,.8,1.95,1.47a23.15,23.15,0,0,0,2,1.2,21,21,0,0,0,2.06.93,18.21,18.21,0,0,0,2.25.69,16.36,16.36,0,0,0,2.31.38,18.26,18.26,0,0,0,2.35.09,21.5,21.5,0,0,0,4.9-.73,13.63,13.63,0,0,0,2.15-.78,12.13,12.13,0,0,0,1.8-1,10.41,10.41,0,0,0,1.48-1.32A10.08,10.08,0,0,0,41.06,53a11.39,11.39,0,0,0,.48-1.87,12.2,12.2,0,0,0,.15-2,11.3,11.3,0,0,0-.1-1.57,8.92,8.92,0,0,0-.31-1.42,7.19,7.19,0,0,0-.52-1.27A6.53,6.53,0,0,0,40,43.75a5.15,5.15,0,0,0-1.05-1,7.76,7.76,0,0,0-1.4-.79,11.61,11.61,0,0,0-1.76-.63c-.66-.18-1.37-.34-2.16-.48l-5.78-.81a36.93,36.93,0,0,1-4.48-.92,30.69,30.69,0,0,1-4.06-1.4,23.61,23.61,0,0,1-3.56-1.91,19.71,19.71,0,0,1-3-2.39,17.75,17.75,0,0,1-4.14-6.3,20.48,20.48,0,0,1-1.07-3.88,25.16,25.16,0,0,1-.36-4.34,21.7,21.7,0,0,1,.13-2.45,20.65,20.65,0,0,1,.36-2.29,20,20,0,0,1,.59-2.12,16.23,16.23,0,0,1,.83-2,15.5,15.5,0,0,1,1-1.77A14.81,14.81,0,0,1,11.4,6.76a15.56,15.56,0,0,1,1.42-1.39,17.32,17.32,0,0,1,1.59-1.19A17.47,17.47,0,0,1,18.06,2.4a18.19,18.19,0,0,1,2-.59c.69-.16,1.4-.29,2.14-.39s1.48-.15,2.24-.18,1.54,0,2.33,0,1.6.12,2.42.23S30.85,1.73,31.69,1.9Z"/><polygon class="cls-2" points="3.61 62.8 0.2 60.51 9.5 50.96 13.56 52.3 3.61 62.8"/><path class="cls-2" d="M7.23,66.77,3.57,64.18l-.88-.65-.86-.68L1,62.13c-.28-.25-.56-.5-.83-.76l3.41,2.38c.29.27.58.55.88.81s.6.53.91.78.61.49.92.73S6.91,66.54,7.23,66.77Z"/><path class="cls-2" d="M3.57,63.75.16,61.37A.55.55,0,0,1,0,61.18.59.59,0,0,1,0,61a.68.68,0,0,1,.05-.23.74.74,0,0,1,.15-.21L3.61,62.8a1.11,1.11,0,0,0-.16.24,1.14,1.14,0,0,0-.06.25.69.69,0,0,0,0,.25A.85.85,0,0,0,3.57,63.75Z"/></g></svg>