<svg id="Layer_1" data-name="Layer 1" xmlns="http://www.w3.org/2000/svg" viewBox="0 0 91 76"><defs><style>.cls-1{isolation:isolate;}.cls-2{fill:#ff3e00;}.cls-3{fill:#fff;}</style></defs><title>logo</title><g class="cls-1"><polygon class="cls-2" points="87.62 60.75 81.35 59.58 81.35 17.16 87.62 16.03 87.62 60.75"/><polygon class="cls-2" points="87.62 16.03 81.35 17.16 76.87 16.38 83.13 15.16 87.62 16.03"/><polygon class="cls-3" points="83.13 49.01 76.87 48.43 76.87 16.38 83.13 15.16 83.13 49.01"/><path class="cls-3" d="M83.06,49.31,76.8,48.7l0-.06s0,0,0-.07,0,0,0-.07v-.07l6.26.58v.08s0,0,0,.08a.25.25,0,0,1,0,.07Z"/><path class="cls-3" d="M82.87,49.44l-6.26-.61h0l0,0,.05,0,0,0,6.26.61a.1.1,0,0,0,0,0l0,0,0,0Z"/><path class="cls-3" d="M82.71,49.45l-6.26-.61h0l6.26.61h0Z"/><polygon class="cls-2" points="82.61 47.66 76.35 47.14 76.35 15.9 82.61 14.66 82.61 47.66"/><path class="cls-2" d="M76.55,15.56l6.26-1.26h0l0,0,0,0,0,0s0,0,0,.06l0,.06s0,.05,0,.08a.19.19,0,0,0,0,.08l-6.26,1.25a.19.19,0,0,1,0-.08s0-.05,0-.07l0-.06a.09.09,0,0,1,0,0l0,0,0,0,0,0Z"/><path class="cls-2" d="M82.71,49.45l-6.26-.61-.06,0-.06,0,0-.06a.2.2,0,0,1,0-.08l6.26.6a.36.36,0,0,0,0,.09l0,.06.06,0Z"/><polygon class="cls-2" points="81.9 61.9 75.64 60.61 81.35 59.58 87.62 60.75 81.9 61.9"/><path class="cls-2" d="M81.68,62.75l-6.25-1.33-.05,0,0,0,0,0a.13.13,0,0,1,0-.06l6.26,1.33,0,.06,0,.05,0,0Z"/><polygon class="cls-2" points="82.51 49.24 76.25 48.64 73.17 39.29 79.42 39.37 82.51 49.24"/><polygon class="cls-3" points="81.9 61.9 75.64 60.61 65.74 37.48 71.91 37.45 81.9 61.9"/><polygon class="cls-2" points="81.52 62.59 75.27 61.27 65.2 37.88 71.36 37.87 81.52 62.59"/><polygon class="cls-2" points="79.42 39.37 73.17 39.29 63.35 14.03 69.49 12.52 79.42 39.37"/><polygon class="cls-3" points="71.91 37.45 65.74 37.48 61.94 27 68.05 26.3 71.91 37.45"/><polygon class="cls-2" points="71.36 37.87 65.2 37.88 61.81 28.57 67.92 27.98 71.36 37.87"/><path class="cls-3" d="M68.05,26.3l-6.11.7a1.17,1.17,0,0,0,0-.11.27.27,0,0,0-.07-.08l-.08,0a.16.16,0,0,0-.09,0L67.76,26l.09,0,.08.06a.31.31,0,0,1,.07.09A.37.37,0,0,1,68.05,26.3Z"/><path class="cls-3" d="M61.44,26.72l6.1-.72h0l-6.1.72h-.05Z"/><path class="cls-2" d="M61.44,26.72l6.1-.72h-.05l0,0,0,0-.05,0-6.1.72,0,0,.05,0,0,0Z"/><polygon class="cls-2" points="67.26 63.91 61.16 62.35 61.16 27.13 67.26 26.44 67.26 63.91"/><path class="cls-2" d="M67.26,26.44l-6.1.69V27s0-.05,0-.08l0-.07,0-.06,6.1-.72a.25.25,0,0,1,0,.07l0,.08a.29.29,0,0,1,0,.09Z"/><polygon class="cls-3" points="60.97 65.13 55 63.43 55 12.57 60.97 10.87 60.97 65.13"/><polygon class="cls-2" points="60.97 65.13 55 63.43 61.16 62.35 67.26 63.91 60.97 65.13"/><polygon class="cls-2" points="69.49 12.52 63.35 14.03 55 12.57 60.97 10.87 69.49 12.52"/><path class="cls-2" d="M60.48,66.16l-6-1.77h0l0,0a.05.05,0,0,1,0,0l0,0,6,1.77,0,0,0,0,0,0Z"/><path class="cls-2" d="M54.52,11.61l6-1.77h0l0,0,0,0,0,0,0,.06,0,.08a.19.19,0,0,0,0,.08.34.34,0,0,0,0,.1l-6,1.74a.19.19,0,0,1,0-.08.29.29,0,0,1,0-.09l0-.07,0-.06,0,0,0,0,0,0Z"/><path class="cls-2" d="M88,15.45a.14.14,0,0,1,0,.06l0,.07s0,.05,0,.08V61.12s0,.05,0,.08l0,.07a.19.19,0,0,1,0,.07l0,0,0,0,0,0h0l-6.11,1.27h-.07a.09.09,0,0,1-.06,0l-.06,0,0-.08L71.36,37.87,67.92,28V64.24a.28.28,0,0,1,0,.09s0,.06,0,.09l0,.09a.2.2,0,0,0,0,.08l-.06.06,0,.06-.06,0-.07,0-7,1.4h-.13l-.07,0-.06,0a.43.43,0,0,1,0-.07l0-.08a.19.19,0,0,1,0-.08.34.34,0,0,1,0-.1V10.25a.34.34,0,0,1,0-.1.19.19,0,0,1,0-.08l0-.08,0-.06.06,0,.07,0h.13l9.08,1.82.09,0,.07.07a.27.27,0,0,1,.07.08.54.54,0,0,1,0,.11L79.9,39l2.71,8.7v-33a.19.19,0,0,1,0-.08s0-.05,0-.08l0-.06s0,0,0-.06,0,0,0,0l0,0,0,0h.05l5,1h0l0,0s0,0,0,0Zm-.41,45.3V16l-4.49-.87V49.09s0,0,0,.08a.25.25,0,0,1,0,.07l0,.07a.1.1,0,0,0,0,0l0,0,0,0h-.17a.11.11,0,0,1-.08,0s0,0-.06,0a.22.22,0,0,1-.06-.07.19.19,0,0,1,0-.09l-3.09-9.87L69.49,12.52,61,10.87V65.13l6.29-1.22V26.35a.29.29,0,0,0,0-.09l0-.08a.25.25,0,0,0,0-.07l.06-.05.06,0,.06,0h.06l.17,0,.09,0,.08.06a.31.31,0,0,1,.07.09.37.37,0,0,1,0,.11l3.86,11.15,10,24.45,5.72-1.15"/><path class="cls-3" d="M87.62,16V60.75L81.9,61.9l-10-24.45L68.05,26.3a.37.37,0,0,0,0-.11.31.31,0,0,0-.07-.09L67.85,26l-.09,0-.17,0h-.06l-.06,0-.06,0-.06.05a.25.25,0,0,1,0,.07l0,.08a.29.29,0,0,1,0,.09V63.91L61,65.13V10.87l8.52,1.65,9.93,26.85,3.09,9.87a.19.19,0,0,0,0,.09.22.22,0,0,0,.06.07s0,0,.06,0a.11.11,0,0,0,.08,0h.17l0,0,0,0a.1.1,0,0,1,0,0l0-.07a.25.25,0,0,0,0-.07s0-.06,0-.08V15.16Z"/><path class="cls-2" d="M60.34,66.08l-6-1.77,0-.06,0-.07a.29.29,0,0,1,0-.09.25.25,0,0,1,0-.09l6,1.75a.34.34,0,0,0,0,.1.19.19,0,0,0,0,.08l0,.08A.43.43,0,0,0,60.34,66.08Z"/><polygon class="cls-2" points="60.24 65.75 54.28 64 54.28 11.99 60.24 10.25 60.24 65.75"/></g><g class="cls-1"><polygon class="cls-2" points="45.57 21.87 40.05 22.98 45.68 17.36 51.4 15.89 45.57 21.87"/><path class="cls-2" d="M45.63,23.18l-5.52,1H40l5.52-1h.12Z"/><path class="cls-2" d="M45.51,23.18l-5.52,1-.09,0-.08-.05s0,0-.08-.06L39.68,24l5.51-1,.07.09.07.06.09.06Z"/><path class="cls-2" d="M51,57.48l-5.71-1.3c.19-.55.36-1.11.5-1.68s.26-1.15.36-1.74.16-1.2.21-1.82.07-1.26.07-1.91a22.74,22.74,0,0,0-.21-3.18,16.42,16.42,0,0,0-.61-2.78,12.74,12.74,0,0,0-1-2.41,11.93,11.93,0,0,0-1.45-2.06,13.26,13.26,0,0,0-1.94-1.77,17.82,17.82,0,0,0-2.51-1.54A23.8,23.8,0,0,0,35.57,34a35.3,35.3,0,0,0-3.79-1.07l5.18-.4a36.87,36.87,0,0,1,4,1.16,25.82,25.82,0,0,1,3.24,1.41,18.14,18.14,0,0,1,2.6,1.66,14.75,14.75,0,0,1,2,1.91,12.33,12.33,0,0,1,1.49,2.2,13.81,13.81,0,0,1,1.06,2.58,18.42,18.42,0,0,1,.63,3,26,26,0,0,1,.21,3.41c0,.69,0,1.37-.07,2s-.12,1.31-.22,2-.22,1.26-.37,1.87S51.19,56.89,51,57.48Z"/><path class="cls-3" d="M30.45,42.61h0l5.12.36h0Z"/><path class="cls-3" d="M36.53,45.29a5.86,5.86,0,0,0-1-.91,8,8,0,0,0-1.34-.73,12.64,12.64,0,0,0-1.68-.59c-.63-.17-1.31-.32-2.06-.45l5.12.36c.78.14,1.5.3,2.15.48a13.31,13.31,0,0,1,1.76.63,8.3,8.3,0,0,1,1.39.79,5.43,5.43,0,0,1,1.05,1A6.86,6.86,0,0,1,42.65,47a7.62,7.62,0,0,1,.52,1.28,8.92,8.92,0,0,1,.31,1.42,11.3,11.3,0,0,1,.1,1.57L42.2,51l-.54-.09-.27,0-3.26-.55,5.45.93a13.37,13.37,0,0,1-.15,2A11.39,11.39,0,0,1,43,55.12a10.6,10.6,0,0,1-.81,1.7A9.28,9.28,0,0,1,41,58.36l-5.35-1.45L41,58.36a10.32,10.32,0,0,1-1.47,1.32,11.75,11.75,0,0,1-1.81,1,13.9,13.9,0,0,1-2.15.78,19.48,19.48,0,0,1-2.51.52h0l-5-1.78h0a17.94,17.94,0,0,0,2.4-.46,14.63,14.63,0,0,0,2.06-.7,11.5,11.5,0,0,0,1.73-1,8.71,8.71,0,0,0,1.41-1.22,8.9,8.9,0,0,0,1.87-3A10.12,10.12,0,0,0,38,52.18a11.49,11.49,0,0,0,.15-1.89,9.85,9.85,0,0,0-.1-1.46,7.93,7.93,0,0,0-.3-1.32,6.54,6.54,0,0,0-.5-1.18A5.74,5.74,0,0,0,36.53,45.29Z"/><polygon class="cls-2" points="36.96 32.51 31.78 32.91 26.45 31.66 31.38 31.15 36.96 32.51"/><polygon class="cls-3" points="35.55 42.97 30.43 42.61 24.92 41.85 29.77 42.16 35.55 42.97"/><polygon class="cls-2" points="35.37 44.1 30.25 43.65 24.76 42.94 29.6 43.34 35.37 44.1"/><path class="cls-3" d="M21.48,16.21l4.66-1.81A9.19,9.19,0,0,1,27.6,14a11.86,11.86,0,0,1,1.64-.2,17.8,17.8,0,0,1,1.79,0c.62,0,1.27.1,1.94.2a20,20,0,0,1,2.35.45,17.8,17.8,0,0,1,2.1.65,14.43,14.43,0,0,1,1.86.86A12.15,12.15,0,0,1,40.93,17c.45.34.9.71,1.32,1.09a16.84,16.84,0,0,1,1.21,1.18c.39.4.76.83,1.11,1.26s.69.89,1,1.36L40.05,23c-.31-.43-.63-.85-1-1.25s-.69-.8-1.06-1.17-.76-.74-1.17-1.09-.83-.68-1.27-1a11.47,11.47,0,0,0-1.58-1,15.17,15.17,0,0,0-1.78-.78,18.94,18.94,0,0,0-2-.58,21.26,21.26,0,0,0-2.24-.4c-.64-.08-1.26-.14-1.85-.16a16.15,16.15,0,0,0-1.71,0,12.33,12.33,0,0,0-1.55.21A8.21,8.21,0,0,0,21.48,16.21Z"/><path class="cls-2" d="M22.09,17.22l4.7-1.73a9.17,9.17,0,0,1,1.28-.35A10.64,10.64,0,0,1,29.52,15a14.94,14.94,0,0,1,1.64,0,17,17,0,0,1,1.81.17,18,18,0,0,1,2.25.42,17.27,17.27,0,0,1,2,.6,14.73,14.73,0,0,1,1.75.79,12.12,12.12,0,0,1,1.51,1c.48.35.93.72,1.37,1.11s.84.8,1.23,1.22a17.23,17.23,0,0,1,1.12,1.31c.35.45.69.92,1,1.41l-5.51,1a15.57,15.57,0,0,0-1-1.3c-.34-.42-.7-.83-1.08-1.22s-.77-.76-1.19-1.12-.85-.7-1.31-1a11,11,0,0,0-1.45-.88A12,12,0,0,0,32,17.74a16.92,16.92,0,0,0-1.9-.55c-.68-.15-1.39-.27-2.15-.37-.61-.07-1.18-.12-1.73-.14s-1.07,0-1.55,0a13.45,13.45,0,0,0-1.39.18A8.55,8.55,0,0,0,22.09,17.22Z"/><path class="cls-3" d="M28.05,60.25l5,1.78a21.63,21.63,0,0,1-2.39.21,18.17,18.17,0,0,1-2.34-.09A16.36,16.36,0,0,1,26,61.77a18.21,18.21,0,0,1-2.25-.69l-.07,0-.07,0L23.49,61l-.14-.05-.15-.06-.15-.06-.14-.06-.15,0-.15-.06-.45-.18-.45-.18-.45-.18-.44-.17-.42-.17L20,59.58l-.39-.16-.37-.14,4.54,1.8-.05,0-.06,0-.05,0-.06,0L19,59.2l.06,0,.05,0,.05,0,.05,0a16.36,16.36,0,0,0,2.13.66,16.15,16.15,0,0,0,2.19.37,16.5,16.5,0,0,0,2.23.1A19.55,19.55,0,0,0,28.05,60.25Z"/><path class="cls-2" d="M24.53,60,20,58.29a15.07,15.07,0,0,0,1.95.59,16.37,16.37,0,0,0,2,.34,17.38,17.38,0,0,0,2.05.09,16.7,16.7,0,0,0,2.1-.14,17.84,17.84,0,0,0,2.28-.42,11.88,11.88,0,0,0,1.91-.64,9.37,9.37,0,0,0,1.57-.86,7.21,7.21,0,0,0,1.25-1.06A7.49,7.49,0,0,0,36,55a7.29,7.29,0,0,0,.68-1.37,8.07,8.07,0,0,0,.4-1.52,11.47,11.47,0,0,0,.14-1.7c0-.46,0-.9-.09-1.31a7.76,7.76,0,0,0-.26-1.15,6.13,6.13,0,0,0-.43-1,4.88,4.88,0,0,0-.6-.88,4.11,4.11,0,0,0-.84-.75,8,8,0,0,0-1.21-.65,11.62,11.62,0,0,0-1.58-.54,20,20,0,0,0-2-.42l5.11.45a21.28,21.28,0,0,1,2.08.45,11.72,11.72,0,0,1,1.65.58,7,7,0,0,1,1.25.69,4.59,4.59,0,0,1,.88.8,5.93,5.93,0,0,1,.63.94,7.09,7.09,0,0,1,.44,1.09,7.76,7.76,0,0,1,.27,1.24,10.4,10.4,0,0,1,.09,1.4,11.72,11.72,0,0,1-.14,1.83,8.69,8.69,0,0,1-1.12,3.13,8.41,8.41,0,0,1-1,1.33,8.09,8.09,0,0,1-1.3,1.16,10.33,10.33,0,0,1-1.64.94,14.15,14.15,0,0,1-2,.71,19,19,0,0,1-2.39.48,18.58,18.58,0,0,1-2.21.17A17,17,0,0,1,28.7,61a16.18,16.18,0,0,1-4.17-1Z"/><path class="cls-2" d="M21.48,16.21l.43-.17.22-.08.44-.18.46-.17.22-.09.47-.18.47-.18.23-.1.48-.18.49-.19.25-.1.5-.19-.34.14a3.36,3.36,0,0,0-.33.16l-.32.17-.31.19a6.74,6.74,0,0,0-1.31,1.12,6.38,6.38,0,0,0-.94,1.44A7.25,7.25,0,0,0,22,19.34a10.41,10.41,0,0,0-.18,2,12.92,12.92,0,0,0,.15,2,8.85,8.85,0,0,0,.46,1.79,7.23,7.23,0,0,0,.77,1.55,6.22,6.22,0,0,0,1.08,1.27,10.36,10.36,0,0,0,1.35,1,11.64,11.64,0,0,0,1.65.87,17.1,17.1,0,0,0,1.92.73c.68.22,1.4.41,2.17.59l-4.93.51c-.73-.16-1.42-.34-2.06-.54a17.42,17.42,0,0,1-1.82-.66,13.53,13.53,0,0,1-1.57-.8,9,9,0,0,1-1.28-.94,5.72,5.72,0,0,1-1-1.17A6.27,6.27,0,0,1,18,26.14a8.68,8.68,0,0,1-.43-1.65,11.14,11.14,0,0,1-.14-1.86,8.21,8.21,0,0,1,.17-1.82,6.77,6.77,0,0,1,.54-1.59,5.77,5.77,0,0,1,.9-1.33,5.94,5.94,0,0,1,1.23-1.05l.29-.18.31-.16.31-.15Z"/><path class="cls-2" d="M12.44,8.68,16.57,6.1a16.35,16.35,0,0,1,1.7-.93,18.4,18.4,0,0,1,1.83-.74c.63-.21,1.28-.39,1.95-.55s1.35-.27,2.06-.37,1.47-.15,2.24-.18,1.54,0,2.33,0,1.59.12,2.41.23,1.64.24,2.49.41c1.11.23,2.18.5,3.2.8s2,.65,2.87,1a28,28,0,0,1,2.58,1.24,24.2,24.2,0,0,1,2.3,1.45,24.32,24.32,0,0,1,3.78,3.33c.57.61,1.11,1.25,1.63,1.93s1,1.38,1.46,2.12l-5.72,1.47c-.45-.68-.92-1.34-1.42-2s-1-1.22-1.57-1.79A21.84,21.84,0,0,0,41,12,20.89,20.89,0,0,0,39,10.56a21.14,21.14,0,0,0-2.21-1.32,25.53,25.53,0,0,0-2.48-1.12,26.85,26.85,0,0,0-2.75-.91c-1-.27-2-.51-3.05-.7-.81-.15-1.6-.27-2.37-.35S24.63,6,23.89,6s-1.5,0-2.22,0a20.86,20.86,0,0,0-2.12.2,19.78,19.78,0,0,0-1.95.37,17.61,17.61,0,0,0-1.83.53c-.6.21-1.17.44-1.73.7A17.63,17.63,0,0,0,12.44,8.68Z"/><path class="cls-2" d="M12.05,52.88l4.1,1.31h-.26L11.8,52.85h.25Z"/><path class="cls-2" d="M23.55,61l-.49-.19-.24-.1-.47-.19-.47-.18-.23-.09-.45-.18-.45-.18-.22-.09-.44-.17-.43-.17-.22-.09L19,59.2a20.16,20.16,0,0,1-1.89-.88,19.54,19.54,0,0,1-1.84-1.11,18.41,18.41,0,0,1-1.78-1.34,23.09,23.09,0,0,1-1.73-1.58l4.08,1.44c.6.61,1.22,1.18,1.84,1.7a21.23,21.23,0,0,0,1.9,1.45,22,22,0,0,0,1.95,1.18A20,20,0,0,0,23.55,61Z"/><path class="cls-2" d="M15.45,54.39l-4.06-1.34.09-.08.1-.06.11,0,.11,0,4.09,1.31-.12,0-.12,0-.1.07A.28.28,0,0,0,15.45,54.39Z"/><path class="cls-2" d="M10.87,68.31,7.1,65.79c.53.35,1.07.69,1.62,1s1.11.61,1.68.89,1.14.54,1.72.78,1.18.46,1.78.67a21.23,21.23,0,0,0,3.07.79,24.75,24.75,0,0,0,3.29.34,31.54,31.54,0,0,0,3.48-.08c1.18-.1,2.39-.26,3.64-.49.86-.15,1.69-.34,2.49-.54s1.54-.43,2.27-.67,1.41-.51,2.07-.8,1.28-.59,1.88-.91,1.16-.67,1.7-1,1-.72,1.53-1.11.93-.79,1.36-1.21a16.48,16.48,0,0,0,1.22-1.29c.38-.45.73-.91,1.06-1.39a16.87,16.87,0,0,0,.92-1.45,16.65,16.65,0,0,0,.77-1.52c.24-.52.45-1.06.64-1.6L51,57.48c-.2.59-.42,1.16-.66,1.72s-.51,1.11-.8,1.64-.61,1.06-.95,1.57-.71,1-1.1,1.49a16.71,16.71,0,0,1-1.26,1.41,17.76,17.76,0,0,1-1.42,1.31c-.5.43-1,.83-1.58,1.22s-1.15.77-1.77,1.13-1.28.69-2,1-1.41.62-2.16.89-1.55.53-2.37.76-1.71.44-2.61.62c-1.31.27-2.59.46-3.83.59a30.64,30.64,0,0,1-3.67.14,24.45,24.45,0,0,1-3.48-.32,20.3,20.3,0,0,1-3.27-.81c-.63-.21-1.26-.44-1.88-.69s-1.24-.53-1.84-.83-1.2-.61-1.79-.94S11.43,68.69,10.87,68.31Z"/><path class="cls-3" d="M12.44,8.68,16.57,6.1l-.07,0-.06,0-.07.05-.07,0a15.67,15.67,0,0,0-1.59,1.19,14.35,14.35,0,0,0-1.42,1.39,13.62,13.62,0,0,0-1.23,1.58A17.19,17.19,0,0,0,11,12.2a17.17,17.17,0,0,0-.82,2,17.86,17.86,0,0,0-.59,2.12c-.16.74-.28,1.5-.37,2.29A24.37,24.37,0,0,0,9.11,21a25.16,25.16,0,0,0,.36,4.34,20.48,20.48,0,0,0,1.07,3.88,18,18,0,0,0,4.13,6.29,19.73,19.73,0,0,0,3,2.4,22.27,22.27,0,0,0,3.56,1.9,29.32,29.32,0,0,0,4.06,1.41,38.94,38.94,0,0,0,4.48.92l-4.85-.31A38.19,38.19,0,0,1,20.66,41a29.15,29.15,0,0,1-3.83-1.3,22.48,22.48,0,0,1-3.35-1.75,18.31,18.31,0,0,1-2.82-2.2A16.48,16.48,0,0,1,6.79,30a18.71,18.71,0,0,1-1-3.55,24.08,24.08,0,0,1-.34-4c0-.77,0-1.52.12-2.24a20,20,0,0,1,.34-2.1,15.14,15.14,0,0,1,.56-2,13.86,13.86,0,0,1,.77-1.81,13.22,13.22,0,0,1,1-1.63,13.8,13.8,0,0,1,1.15-1.47A16.08,16.08,0,0,1,10.69,10a13.93,13.93,0,0,1,1.5-1.12l.06,0,.07,0,.06,0Z"/><path class="cls-2" d="M11.28,7.91l4.05-2.66A15.66,15.66,0,0,0,13.67,6.5,14.67,14.67,0,0,0,12.18,8a15.1,15.1,0,0,0-1.3,1.66,19,19,0,0,0-1.1,1.86,16.34,16.34,0,0,0-.89,2.1,18.21,18.21,0,0,0-.65,2.28,23.44,23.44,0,0,0-.39,2.44c-.08.84-.12,1.71-.12,2.6a26.36,26.36,0,0,0,.38,4.6,22.17,22.17,0,0,0,1.16,4.16,19.78,19.78,0,0,0,1.89,3.66,18.89,18.89,0,0,0,2.6,3.12A20.7,20.7,0,0,0,17,39a25,25,0,0,0,3.77,2A31.34,31.34,0,0,0,25,42.42a38.14,38.14,0,0,0,4.62.92l-4.84-.4a38.15,38.15,0,0,1-4.38-.86,29.31,29.31,0,0,1-4-1.33,24.19,24.19,0,0,1-3.55-1.83,19.5,19.5,0,0,1-3-2.35,17.92,17.92,0,0,1-2.44-2.86A18.13,18.13,0,0,1,5.6,30.36a19.46,19.46,0,0,1-1.07-3.81A24,24,0,0,1,4.28,20a19.74,19.74,0,0,1,.37-2.24,17.39,17.39,0,0,1,.6-2.09,15.84,15.84,0,0,1,.84-1.93,16.23,16.23,0,0,1,1-1.72,15.28,15.28,0,0,1,1.22-1.54A14.9,14.9,0,0,1,9.72,9.08,15.1,15.1,0,0,1,11.28,7.91Z"/><polygon class="cls-3" points="6.97 65.21 3.46 62.91 11.78 54.29 15.86 55.73 6.97 65.21"/><path class="cls-3" d="M3.46,62.91,7,65.21l.94.85,1,.8,1,.75c.33.24.67.47,1,.7L7.1,65.79c-.32-.21-.63-.43-.94-.66s-.62-.46-.92-.7-.61-.48-.9-.74S3.75,63.18,3.46,62.91Z"/><path class="cls-2" d="M49.37,37.89A12.92,12.92,0,0,1,51,40.27,15.16,15.16,0,0,1,52.11,43a20,20,0,0,1,.67,3.16A28.42,28.42,0,0,1,53,49.75c0,.72,0,1.43-.08,2.12s-.13,1.38-.23,2.05-.23,1.32-.38,2-.33,1.27-.54,1.89-.44,1.24-.69,1.83-.54,1.18-.85,1.74-.64,1.12-1,1.66a19.53,19.53,0,0,1-1.16,1.59c-.41.52-.86,1-1.32,1.5s-1,.94-1.49,1.39-1.08.87-1.66,1.28-1.2.81-1.84,1.19-1.33.73-2,1.07-1.46.64-2.24.93-1.6.56-2.45.8-1.75.46-2.67.66a38.21,38.21,0,0,1-3.94.62,30.85,30.85,0,0,1-3.8.18A25.14,25.14,0,0,1,21,73.91a22.42,22.42,0,0,1-3.44-.82,34.37,34.37,0,0,1-3.24-1.25,34.09,34.09,0,0,1-3.11-1.63,33.29,33.29,0,0,1-3-2,32.82,32.82,0,0,1-2.78-2.39.49.49,0,0,1-.14-.21.64.64,0,0,1,0-.24.57.57,0,0,1,.06-.25.75.75,0,0,1,.15-.24l10-10.5a.28.28,0,0,1,.1-.09l.1-.07.12,0,.12,0H16l.13,0,.12.06.09.08c.62.66,1.25,1.28,1.89,1.84a24.8,24.8,0,0,0,1.95,1.54,21.36,21.36,0,0,0,2,1.24,18.21,18.21,0,0,0,2.06.95,17,17,0,0,0,4.28,1,16.35,16.35,0,0,0,2.22.09,19.75,19.75,0,0,0,2.27-.17,19,19,0,0,0,2.39-.48,14.15,14.15,0,0,0,2-.71,10.33,10.33,0,0,0,1.64-.94,8.09,8.09,0,0,0,1.3-1.16,8.41,8.41,0,0,0,1-1.33,8.69,8.69,0,0,0,1.12-3.13,11.72,11.72,0,0,0,.14-1.83,10.4,10.4,0,0,0-.09-1.4,7.76,7.76,0,0,0-.27-1.24,7.09,7.09,0,0,0-.44-1.09,5.93,5.93,0,0,0-.63-.94,4.59,4.59,0,0,0-.88-.8,7,7,0,0,0-1.25-.69,11.72,11.72,0,0,0-1.65-.58,21.28,21.28,0,0,0-2.08-.45l-5.76-.76A38.14,38.14,0,0,1,25,42.42,31.34,31.34,0,0,1,20.75,41,25,25,0,0,1,17,39a20.7,20.7,0,0,1-3.22-2.56,18.89,18.89,0,0,1-2.6-3.12,19.78,19.78,0,0,1-1.89-3.66A22.17,22.17,0,0,1,8.11,25.5a26.36,26.36,0,0,1-.38-4.6c0-.89,0-1.76.12-2.6a23.44,23.44,0,0,1,.39-2.44,18.21,18.21,0,0,1,.65-2.28,16.34,16.34,0,0,1,.89-2.1,17,17,0,0,1,1.13-1.9,15.91,15.91,0,0,1,1.34-1.7A15.31,15.31,0,0,1,13.78,6.4,16.9,16.9,0,0,1,15.5,5.14a16.29,16.29,0,0,1,1.87-1,18,18,0,0,1,2-.82,18.6,18.6,0,0,1,2.13-.6,20.31,20.31,0,0,1,2.25-.39A22.39,22.39,0,0,1,26.1,2.1c.8,0,1.6,0,2.43,0s1.65.13,2.49.25,1.69.27,2.56.45c1.14.24,2.24.52,3.28.84a30.46,30.46,0,0,1,3,1.08A27.56,27.56,0,0,1,42.5,6.07a26.41,26.41,0,0,1,2.4,1.52,25.92,25.92,0,0,1,2.15,1.74,27.3,27.3,0,0,1,2,1.93c.61.68,1.19,1.39,1.74,2.14a27.89,27.89,0,0,1,1.55,2.34.71.71,0,0,1,.08.18.62.62,0,0,1,0,.19.48.48,0,0,1,0,.18.38.38,0,0,1-.09.15l-6.41,6.62a.16.16,0,0,1-.08.06l-.08,0-.09,0a.14.14,0,0,1-.09,0l-.09,0-.09-.06L45.26,23,45.19,23c-.31-.49-.65-1-1-1.41a17.23,17.23,0,0,0-1.12-1.31c-.39-.42-.8-.83-1.23-1.22s-.89-.76-1.37-1.11a12.12,12.12,0,0,0-1.51-1,14.73,14.73,0,0,0-1.75-.79,17.27,17.27,0,0,0-2-.6A18,18,0,0,0,33,15.13a17.66,17.66,0,0,0-2.32-.19,13,13,0,0,0-2,.11,8.25,8.25,0,0,0-1.71.4,6.26,6.26,0,0,0-1.4.67,5.88,5.88,0,0,0-1.08,1,5,5,0,0,0-.79,1.19,6.32,6.32,0,0,0-.47,1.45A9,9,0,0,0,23,21.43a11.37,11.37,0,0,0,.13,1.8,8.24,8.24,0,0,0,.38,1.52A6.54,6.54,0,0,0,24.16,26,5.33,5.33,0,0,0,25,27a8.61,8.61,0,0,0,1.16.89,13.87,13.87,0,0,0,1.5.8,15.42,15.42,0,0,0,1.8.69c.64.22,1.34.41,2.08.59l5.57,1.39a39.9,39.9,0,0,1,4,1.21,25.81,25.81,0,0,1,3.34,1.49,18.57,18.57,0,0,1,2.71,1.75A14.77,14.77,0,0,1,49.37,37.89ZM51,57.48c.19-.59.37-1.19.51-1.8s.27-1.23.37-1.87.17-1.29.22-2,.07-1.35.07-2A26,26,0,0,0,52,46.41a18.42,18.42,0,0,0-.63-3,13.81,13.81,0,0,0-1.06-2.58,12.33,12.33,0,0,0-1.49-2.2,14.75,14.75,0,0,0-2-1.91,18.14,18.14,0,0,0-2.6-1.66,25.82,25.82,0,0,0-3.24-1.41,36.87,36.87,0,0,0-4-1.16l-5.58-1.36c-.77-.18-1.49-.37-2.17-.59a17.1,17.1,0,0,1-1.92-.73A11.64,11.64,0,0,1,25.64,29a10.36,10.36,0,0,1-1.35-1,6.22,6.22,0,0,1-1.08-1.27,7.23,7.23,0,0,1-.77-1.55A8.85,8.85,0,0,1,22,23.33a12.92,12.92,0,0,1-.15-2,10.41,10.41,0,0,1,.18-2,7.25,7.25,0,0,1,.58-1.72,6.38,6.38,0,0,1,.94-1.44,6.74,6.74,0,0,1,1.31-1.12,7,7,0,0,1,1.63-.78,9.06,9.06,0,0,1,1.91-.43,13.93,13.93,0,0,1,2.18-.1A19.09,19.09,0,0,1,33,14a20,20,0,0,1,2.35.45,17.8,17.8,0,0,1,2.1.65,14.43,14.43,0,0,1,1.86.86A12.15,12.15,0,0,1,40.93,17c.45.34.9.71,1.32,1.09a16.84,16.84,0,0,1,1.21,1.18c.39.4.76.83,1.11,1.26s.69.89,1,1.36l5.83-6c-.46-.74-.95-1.44-1.46-2.12s-1.06-1.32-1.63-1.93a24.32,24.32,0,0,0-3.78-3.33,24.2,24.2,0,0,0-2.3-1.45,28,28,0,0,0-2.58-1.24c-.91-.38-1.87-.72-2.87-1s-2.09-.57-3.2-.8c-.85-.17-1.67-.31-2.49-.41s-1.62-.19-2.41-.23-1.57-.05-2.33,0-1.51.09-2.24.18-1.45.23-2.14.39a18.19,18.19,0,0,0-2,.59,17.8,17.8,0,0,0-1.89.78,16,16,0,0,0-1.76,1,15.67,15.67,0,0,0-1.59,1.19,14.35,14.35,0,0,0-1.42,1.39,13.62,13.62,0,0,0-1.23,1.58A17.19,17.19,0,0,0,11,12.2a17.17,17.17,0,0,0-.82,2,17.86,17.86,0,0,0-.59,2.12c-.16.74-.28,1.5-.37,2.29A24.37,24.37,0,0,0,9.11,21a25.16,25.16,0,0,0,.36,4.34,20.48,20.48,0,0,0,1.07,3.88,18,18,0,0,0,4.13,6.29,19.73,19.73,0,0,0,3,2.4,22.27,22.27,0,0,0,3.56,1.9,29.32,29.32,0,0,0,4.06,1.41,38.94,38.94,0,0,0,4.48.92l5.77.81a20.59,20.59,0,0,1,2.16.48,12.16,12.16,0,0,1,1.77.63,8.11,8.11,0,0,1,1.4.79,5.73,5.73,0,0,1,1.05,1A6.86,6.86,0,0,1,42.65,47a7.62,7.62,0,0,1,.52,1.28,8.92,8.92,0,0,1,.31,1.42,11.3,11.3,0,0,1,.1,1.57,13.37,13.37,0,0,1-.15,2A11.39,11.39,0,0,1,43,55.12a10.6,10.6,0,0,1-.81,1.7A9.28,9.28,0,0,1,41,58.36a10.32,10.32,0,0,1-1.47,1.32,11.75,11.75,0,0,1-1.81,1,13.9,13.9,0,0,1-2.15.78,19.48,19.48,0,0,1-2.51.52,21.63,21.63,0,0,1-2.39.21,18.17,18.17,0,0,1-2.34-.09A16.36,16.36,0,0,1,26,61.77a18.21,18.21,0,0,1-2.25-.69,20,20,0,0,1-2.06-.93,23.15,23.15,0,0,1-2-1.2q-1-.68-1.95-1.47c-.64-.54-1.27-1.12-1.89-1.75L7,65.21a30.31,30.31,0,0,0,2.57,2.16,30.21,30.21,0,0,0,5.59,3.31,31.74,31.74,0,0,0,3,1.17,20.3,20.3,0,0,0,3.27.81,24.45,24.45,0,0,0,3.48.32,30.64,30.64,0,0,0,3.67-.14c1.24-.13,2.52-.32,3.83-.59.9-.18,1.77-.39,2.61-.62s1.61-.48,2.37-.76,1.47-.57,2.16-.89,1.33-.65,2-1,1.21-.74,1.77-1.13,1.08-.79,1.58-1.22a17.76,17.76,0,0,0,1.42-1.31,16.71,16.71,0,0,0,1.26-1.41c.39-.48.76-1,1.1-1.49s.66-1,.95-1.57.56-1.08.8-1.64.46-1.13.66-1.72"/><path class="cls-3" d="M33.58,4c1.11.23,2.18.5,3.2.8s2,.65,2.87,1a28,28,0,0,1,2.58,1.24,24.2,24.2,0,0,1,2.3,1.45,24.32,24.32,0,0,1,3.78,3.33c.57.61,1.11,1.25,1.63,1.93s1,1.38,1.46,2.12l-5.83,6c-.31-.47-.65-.92-1-1.36s-.72-.86-1.11-1.26a16.84,16.84,0,0,0-1.21-1.18c-.42-.38-.87-.75-1.32-1.09a12.15,12.15,0,0,0-1.65-1.05,14.43,14.43,0,0,0-1.86-.86,17.8,17.8,0,0,0-2.1-.65A20,20,0,0,0,33,14a19.09,19.09,0,0,0-2.41-.22,13.93,13.93,0,0,0-2.18.1,9.06,9.06,0,0,0-1.91.43,7,7,0,0,0-1.63.78,6.74,6.74,0,0,0-1.31,1.12,6.38,6.38,0,0,0-.94,1.44A7.25,7.25,0,0,0,22,19.34a10.41,10.41,0,0,0-.18,2,12.92,12.92,0,0,0,.15,2,8.85,8.85,0,0,0,.46,1.79,7.23,7.23,0,0,0,.77,1.55,6.22,6.22,0,0,0,1.08,1.27,10.36,10.36,0,0,0,1.35,1,12.21,12.21,0,0,0,1.65.87,18.72,18.72,0,0,0,1.92.73c.68.22,1.41.41,2.18.59L37,32.51a36.87,36.87,0,0,1,4,1.16,25.82,25.82,0,0,1,3.24,1.41,18.14,18.14,0,0,1,2.6,1.66,14.75,14.75,0,0,1,2,1.91,12.33,12.33,0,0,1,1.49,2.2,13.81,13.81,0,0,1,1.06,2.58,18.42,18.42,0,0,1,.63,3,26,26,0,0,1,.21,3.41c0,.69,0,1.37-.07,2s-.12,1.31-.22,2-.22,1.26-.37,1.87-.32,1.21-.51,1.8-.42,1.16-.66,1.72-.51,1.11-.8,1.64-.61,1.06-.95,1.57-.71,1-1.1,1.49a16.71,16.71,0,0,1-1.26,1.41,17.76,17.76,0,0,1-1.42,1.31c-.5.43-1,.83-1.58,1.22s-1.15.77-1.77,1.13-1.28.69-2,1-1.41.62-2.16.89-1.55.53-2.37.76-1.71.44-2.61.62c-1.31.27-2.59.46-3.83.59a30.64,30.64,0,0,1-3.67.14,24.45,24.45,0,0,1-3.48-.32,20.3,20.3,0,0,1-3.27-.81,31.74,31.74,0,0,1-3-1.17,30.21,30.21,0,0,1-5.59-3.31A30.31,30.31,0,0,1,7,65.21l8.89-9.48c.62.63,1.25,1.21,1.89,1.75S19,58.5,19.7,59a23.15,23.15,0,0,0,2,1.2,20,20,0,0,0,2.06.93,18.21,18.21,0,0,0,2.25.69,16.36,16.36,0,0,0,2.31.38,18.17,18.17,0,0,0,2.34.09A21.63,21.63,0,0,0,33.06,62a19.48,19.48,0,0,0,2.51-.52,13.9,13.9,0,0,0,2.15-.78,11.75,11.75,0,0,0,1.81-1A10.32,10.32,0,0,0,41,58.36a9.28,9.28,0,0,0,1.14-1.54,10.6,10.6,0,0,0,.81-1.7,11.39,11.39,0,0,0,.48-1.87,13.37,13.37,0,0,0,.15-2,11.3,11.3,0,0,0-.1-1.57,8.92,8.92,0,0,0-.31-1.42A7.62,7.62,0,0,0,42.65,47a6.86,6.86,0,0,0-.73-1.11,5.73,5.73,0,0,0-1.05-1,7.76,7.76,0,0,0-1.4-.79,12,12,0,0,0-1.76-.63A19.28,19.28,0,0,0,35.55,43l-5.78-.81a38.94,38.94,0,0,1-4.48-.92,29.32,29.32,0,0,1-4.06-1.41,22.27,22.27,0,0,1-3.56-1.9,19.73,19.73,0,0,1-3-2.4,18,18,0,0,1-4.13-6.29,20.48,20.48,0,0,1-1.07-3.88A25.16,25.16,0,0,1,9.11,21a24.37,24.37,0,0,1,.12-2.45c.09-.79.21-1.55.37-2.29a17.86,17.86,0,0,1,.59-2.12,17.17,17.17,0,0,1,.82-2,17.19,17.19,0,0,1,1.05-1.77,13.62,13.62,0,0,1,1.23-1.58,14.35,14.35,0,0,1,1.42-1.39A15.67,15.67,0,0,1,16.3,6.27a16,16,0,0,1,1.76-1A17.8,17.8,0,0,1,20,4.49a18.19,18.19,0,0,1,2-.59c.69-.16,1.4-.29,2.14-.39s1.47-.15,2.24-.18,1.54,0,2.33,0,1.59.12,2.41.23S32.73,3.82,33.58,4Z"/><polygon class="cls-2" points="5.49 64.89 2.08 62.6 11.39 53.05 15.45 54.38 5.49 64.89"/><path class="cls-2" d="M9.11,68.85,5.46,66.27c-.3-.21-.59-.43-.88-.65l-.86-.68-.85-.72-.82-.76,3.41,2.37.88.82c.3.27.6.52.91.78s.61.49.92.73S8.8,68.63,9.11,68.85Z"/><path class="cls-2" d="M5.46,65.83,2.05,63.46a.59.59,0,0,1-.13-.19.85.85,0,0,1,0-.23.68.68,0,0,1,.05-.23.58.58,0,0,1,.15-.21l3.4,2.29a.75.75,0,0,0-.15.24.57.57,0,0,0-.06.25.64.64,0,0,0,0,.24A.49.49,0,0,0,5.46,65.83Z"/></g></svg>